<svg xmlns="http://www.w3.org/2000/svg" version="1.1" viewBox="-5.0 -10.0 110.0 135.0">
 <path d="m50 59.039c-11.27 0-21.359 6.6797-25.762 17.039 7.0117 6.6094 16.16 10.25 25.762 10.25s18.75-3.6406 25.77-10.25c-4.3984-10.359-14.488-17.039-25.77-17.039z"/>
 <path d="m50 54.73c7.5312 0 13.648-6.1289 13.648-13.648s-6.1211-13.648-13.648-13.648c-7.5312 0-13.641 6.1289-13.641 13.648s6.1211 13.648 13.641 13.648z"/>
 <path d="m50 10c-22.059 0-40 17.941-40 40s17.941 40 40 40 40-17.941 40-40-17.941-40-40-40zm0 78.051c-20.98 0-38.051-17.07-38.051-38.051s17.07-38.051 38.051-38.051 38.051 17.07 38.051 38.051-17.07 38.051-38.051 38.051z"/>
<text x="0.0" y="117.5" font-size="5.0" font-weight="bold" font-family="Arbeit Regular, Helvetica, Arial-Unicode, Arial, Sans-serif" fill="#000000">Created by Kang panjai</text><text x="0.0" y="122.5" font-size="5.0" font-weight="bold" font-family="Arbeit Regular, Helvetica, Arial-Unicode, Arial, Sans-serif" fill="#000000">from Noun Project</text></svg>